<svg id="Layer_1" data-name="Layer 1" xmlns="http://www.w3.org/2000/svg" viewBox="0 0 695.39 84.24"><path d="M236.18,455.57v15H201.74v69h-15v-69H152.3v-15Z" transform="translate(-152.3 -455.45)"/><path d="M263.3,478.13v7.8h54v15h-54v15.84a7.74,7.74,0,0,0,7.68,7.68H332.3v15H271a22.63,22.63,0,0,1-22.56-22.67V478.13A22.64,22.64,0,0,1,271,455.45H332.3v15H271A7.73,7.73,0,0,0,263.3,478.13Z" transform="translate(-152.3 -455.45)"/><path d="M412.1,524.69l7.68,15H403l-7.68-15-8-15.72-.36-.72a14.87,14.87,0,0,0-12.72-7.2h-15v38.63h-15v-84h53a22.53,22.53,0,0,1,22.56,22.56,22.75,22.75,0,0,1-13.2,20.64,20,20,0,0,1-6.48,1.8Zm-14.88-38.64a7,7,0,0,0,3.12-.72,7.62,7.62,0,0,0,4.56-7,7.92,7.92,0,0,0-2.28-5.52,7.56,7.56,0,0,0-5.4-2.16h-38v15.48Z" transform="translate(-152.3 -455.45)"/><path d="M512.78,539.44H496l-7.68-15-18.36-36-18.36,36-7.68,15H427.1l7.68-15,35.16-69,35.16,69Z" transform="translate(-152.3 -455.45)"/><path d="M604.1,455.45v15H542.78a7.73,7.73,0,0,0-7.68,7.68v7.8h54v15H535v38.51H520.1V478.13a22.64,22.64,0,0,1,22.56-22.68Z" transform="translate(-152.3 -455.45)"/><path d="M678.38,539.44h-16.8l-7.68-15-18.36-36-18.36,36-7.68,15H592.7l7.68-15,35.16-69,35.16,69Z" transform="translate(-152.3 -455.45)"/><path d="M751.7,524.57v15H709.1a26.09,26.09,0,0,1-11.76-2.76,26.59,26.59,0,0,1-12.12-12.23,26.12,26.12,0,0,1-2.76-11.76V455.57h15v58.68a12,12,0,0,0,10.2,10.2Z" transform="translate(-152.3 -455.45)"/><path d="M811,489.17l36.35,50.27H828.85l-29-40.07-21.24,19.32v20.75h-15v-84h15v43l12.36-11.28,11.16-10.2,23.39-21.48h22.2Z" transform="translate(-152.3 -455.45)"/></svg>